HIERARCHY
ROOT hip
{
  OFFSET 0 0 0
  CHANNELS 6 Xposition Yposition Zposition Zrotation Yrotation Xrotation
  JOINT abdomen
  {
    OFFSET 0 20.6881 -0.73152
    CHANNELS 3 Zrotation Xrotation Yrotation
    JOINT chest
    {
      OFFSET 0 11.7043 -0.48768
      CHANNELS 3 Zrotation Xrotation Yrotation
      JOINT neck
      {
        OFFSET 0 22.1894 -2.19456
        CHANNELS 3 Zrotation Xrotation Yrotation
        JOINT head
        {
          OFFSET -0.24384 7.07133 1.2192
          CHANNELS 3 Zrotation Xrotation Yrotation
          JOINT leftEye
          {
            OFFSET 4.14528 8.04674 8.04672
            CHANNELS 3 Zrotation Xrotation Yrotation
            End Site
            {
              OFFSET 1 0 0
            }
          }
          JOINT rightEye
          {
            OFFSET -3.6576 8.04674 8.04672
            CHANNELS 3 Zrotation Xrotation Yrotation
            End Site
            {
              OFFSET 1 0 0
            }
          }
        }
      }
      JOINT rCollar
      {
        OFFSET -2.68224 19.2634 -4.8768
        CHANNELS 3 Zrotation Xrotation Yrotation
        JOINT rShldr
        {
          OFFSET -8.77824 -1.95073 1.46304
          CHANNELS 3 Zrotation Xrotation Yrotation
          JOINT rForeArm
          {
            OFFSET -28.1742 -1.7115 0.48768
            CHANNELS 3 Zrotation Xrotation Yrotation
            JOINT rHand
            {
              OFFSET -22.5879 0.773209 7.07136
              CHANNELS 3 Zrotation Xrotation Yrotation
              JOINT rThumb1
              {
                OFFSET -1.2192 -0.487915 3.41376
                CHANNELS 3 Zrotation Xrotation Yrotation
                JOINT rThumb2
                {
                  OFFSET -3.37035 -0.52449 3.41376
                  CHANNELS 3 Zrotation Xrotation Yrotation
                  End Site
                  {
                    OFFSET -1.78271 -1.18214 1.43049
                  }
                }
              }
              JOINT rIndex1
              {
                OFFSET -7.75947 0.938293 5.60832
                CHANNELS 3 Zrotation Xrotation Yrotation
                JOINT rIndex2
                {
                  OFFSET -2.54057 -0.884171 1.56538
                  CHANNELS 3 Zrotation Xrotation Yrotation
                  End Site
                  {
                    OFFSET -1.62519 -0.234802 1.16502
                  }
                }
              }
              JOINT rMid1
              {
                OFFSET -8.24714 1.18213 3.41376
                CHANNELS 3 Zrotation Xrotation Yrotation
                JOINT rMid2
                {
                  OFFSET -3.10165 -0.590103 1.0647
                  CHANNELS 3 Zrotation Xrotation Yrotation
                  End Site
                  {
                    OFFSET -2.48547 -0.328903 0.83742
                  }
                }
              }
              JOINT rRing1
              {
                OFFSET -8.82822 0.546677 1.51678
                CHANNELS 3 Zrotation Xrotation Yrotation
                JOINT rRing2
                {
                  OFFSET -2.60934 -0.819778 -0.0198488
                  CHANNELS 3 Zrotation Xrotation Yrotation
                  End Site
                  {
                    OFFSET -2.33842 -0.294052 0.168128
                  }
                }
              }
              JOINT rPinky1
              {
                OFFSET -8.27202 -0.0477905 -0.4584
                CHANNELS 3 Zrotation Xrotation Yrotation
                JOINT rPinky2
                {
                  OFFSET -1.82734 -0.647385 -0.700984
                  CHANNELS 3 Zrotation Xrotation Yrotation
                  End Site
                  {
                    OFFSET -1.69225 -0.51767 -0.607171
                  }
                }
              }
            }
          }
        }
      }
      JOINT lCollar
      {
        OFFSET 2.68224 19.2634 -4.8768
        CHANNELS 3 Zrotation Xrotation Yrotation
        JOINT lShldr
        {
          OFFSET 8.77824 -1.95073 1.46304
          CHANNELS 3 Zrotation Xrotation Yrotation
          JOINT lForeArm
          {
            OFFSET 28.1742 -1.7115 0.48768
            CHANNELS 3 Zrotation Xrotation Yrotation
            JOINT lHand
            {
              OFFSET 22.5879 0.773209 7.07136
              CHANNELS 3 Zrotation Xrotation Yrotation
              JOINT lThumb1
              {
                OFFSET 1.2192 -0.487915 3.41376
                CHANNELS 3 Zrotation Xrotation Yrotation
                JOINT lThumb2
                {
                  OFFSET 3.37035 -0.52449 3.41376
                  CHANNELS 3 Zrotation Xrotation Yrotation
                  End Site
                  {
                    OFFSET 1.78271 -1.18214 1.43049
                  }
                }
              }
              JOINT lIndex1
              {
                OFFSET 7.75947 0.938293 5.60832
                CHANNELS 3 Zrotation Xrotation Yrotation
                JOINT lIndex2
                {
                  OFFSET 2.54057 -0.884171 1.56538
                  CHANNELS 3 Zrotation Xrotation Yrotation
                  End Site
                  {
                    OFFSET 1.62519 -0.234802 1.16502
                  }
                }
              }
              JOINT lMid1
              {
                OFFSET 8.24714 1.18213 3.41376
                CHANNELS 3 Zrotation Xrotation Yrotation
                JOINT lMid2
                {
                  OFFSET 3.10165 -0.590103 1.0647
                  CHANNELS 3 Zrotation Xrotation Yrotation
                  End Site
                  {
                    OFFSET 2.48547 -0.328903 0.83742
                  }
                }
              }
              JOINT lRing1
              {
                OFFSET 8.82822 0.546677 1.51678
                CHANNELS 3 Zrotation Xrotation Yrotation
                JOINT lRing2
                {
                  OFFSET 2.60934 -0.819778 -0.0198488
                  CHANNELS 3 Zrotation Xrotation Yrotation
                  End Site
                  {
                    OFFSET 2.33842 -0.294052 0.168128
                  }
                }
              }
              JOINT lPinky1
              {
                OFFSET 8.27202 -0.0477905 -0.4584
                CHANNELS 3 Zrotation Xrotation Yrotation
                JOINT lPinky2
                {
                  OFFSET 1.82734 -0.647385 -0.700984
                  CHANNELS 3 Zrotation Xrotation Yrotation
                  End Site
                  {
                    OFFSET 1.69225 -0.51767 -0.607171
                  }
                }
              }
            }
          }
        }
      }
    }
  }
  JOINT rButtock
  {
    OFFSET -8.77824 4.35084 1.2192
    CHANNELS 3 Zrotation Xrotation Yrotation
    JOINT rThigh
    {
      OFFSET 0 -1.70687 -2.19456
      CHANNELS 3 Zrotation Xrotation Yrotation
      JOINT rShin
      {
        OFFSET 0 -36.8199 0.73152
        CHANNELS 3 Zrotation Xrotation Yrotation
        JOINT rFoot
        {
          OFFSET 0.73152 -45.1104 -5.12064
          CHANNELS 3 Zrotation Xrotation Yrotation
          End Site
          {
            OFFSET -1.1221 -3.69964 12.103
          }
        }
      }
    }
  }
  JOINT lButtock
  {
    OFFSET 8.77824 4.35084 1.2192
    CHANNELS 3 Zrotation Xrotation Yrotation
    JOINT lThigh
    {
      OFFSET 0 -1.70687 -2.19456
      CHANNELS 3 Zrotation Xrotation Yrotation
      JOINT lShin
      {
        OFFSET 0 -36.8199 0.73152
        CHANNELS 3 Zrotation Xrotation Yrotation
        JOINT lFoot
        {
          OFFSET -0.73152 -45.1104 -5.12064
          CHANNELS 3 Zrotation Xrotation Yrotation
          End Site
          {
            OFFSET 1.1221 -3.69964 12.103
          }
        }
      }
    }
  }
}
MOTION
Frames:	4
Frame Time:	0.03333
8.391049983678386 54.23040008544922 35.52839990332723 6.017700210213661 -14.847999662160873 8.228199854493141 -14.190099388360977 16.332099437713623 -4.3428098782896996 7.888439744710922 -10.139599665999413 -1.1451500281691551 -1.345889987424016 11.14820010960102 4.024989902973175 5.215519890189171 -31.54410034418106 9.736530035734177 0.0 0.0 0.0 0.0 0.0 0.0 3.197442310920451e-13 0.0 0.0 97.66359686851501 46.41680181026459 -33.964000046253204 -28.226001262664795 -39.039300084114075 82.16840028762817 -7.802969813346863 -59.269400238990784 -13.673500567674637 -1.0046363740912057e-09 4.1438852349529043e-10 -2.2254198484006338e-10 -1.7192647305819264e-09 6.599520929739811e-10 -4.2717829273897223e-10 -1.0046363740912057e-09 4.1438852349529043e-10 -2.2254198484006338e-10 7.7309102565050125 5.474880114197731 0.41731400415301323 -1.0046363740912057e-09 4.1438852349529043e-10 -2.2254198484006338e-10 2.905540131032467 0.9651830233633518 0.102901995414868 -1.0046363740912057e-09 4.1438852349529043e-10 -2.2254198484006338e-10 10.27859978377819 0.7318009994924068 0.025912300043273717 -1.0046363740912057e-09 4.1438852349529043e-10 -2.2254198484006338e-10 2.221670038998127 -0.733487019315362 -0.2089200052432716 3.197442310920451e-13 0.0 0.0 -41.063799262046814 -15.862200558185577 -72.04350113868713 12.22279965877533 -5.575509890913963 -22.132699638605118 1.5829899720847607 33.34170073270798 -5.301910154521465 -1.5571544054182596e-10 3.077218480029842e-09 -6.420464160328265e-10 -2.788169695122633e-10 5.328217866917839e-09 -1.1024781088053714e-09 -1.5571544054182596e-10 3.077218480029842e-09 -6.420464160328265e-10 -7.7309102565050125 5.474880114197731 -0.41731400415301323 -1.5571544054182596e-10 3.077218480029842e-09 -6.420464160328265e-10 -2.905540131032467 0.9651830233633518 -0.102901995414868 -1.5571544054182596e-10 3.077218480029842e-09 -6.420464160328265e-10 -10.27859978377819 0.7318009994924068 -0.025912300043273717 -1.5571544054182596e-10 3.077218480029842e-09 -6.420464160328265e-10 -2.221670038998127 -0.733487019315362 0.2089200052432716 0.0 0.0 0.0 -11.023500189185143 -57.53369987010956 -11.973099410533905 -175.76799988746643 69.7327995300293 175.86199522018433 -2.553509920835495 -7.253330200910568 -9.17570024728775 0.0 0.0 0.0 6.546289846301079 -48.67550075054169 26.178700625896454 3.747750073671341 78.34350049495697 -5.004359968006611 12.689300179481506 -14.927099347114563 33.43709886074066
8.336779984412715 54.04949951171875 38.48740001395345 6.933999806642532 -12.847200483083725 6.937500089406967 -14.765799343585968 17.157600224018097 -4.659220017492771 7.939840257167816 -10.359399989247322 -1.2307000067085028 -1.5177199244499207 11.185299754142761 3.4386898577213287 4.830179996788502 -31.125498712062836 8.426010087132454 0.0 0.0 0.0 0.0 0.0 0.0 6.394884621840902e-13 0.0 0.0 95.50129652023315 47.40020155906677 -30.816899836063385 -27.83359944820404 -41.214198768138885 86.12630009651184 -8.132200241088867 -59.941497445106506 -14.054799377918243 -5.272582370707823e-10 1.2533973858808167e-10 -4.5787373892380856e-10 -8.885692182047933e-10 1.2789769243681803e-10 -8.108713700494263e-10 -5.272582370707823e-10 1.2533973858808167e-10 -4.5787373892380856e-10 7.7309102565050125 5.474880114197731 0.41731400415301323 -5.272582370707823e-10 1.2533973858808167e-10 -4.5787373892380856e-10 2.905540131032467 0.9651830233633518 0.102901995414868 -5.272582370707823e-10 1.2533973858808167e-10 -4.5787373892380856e-10 10.27859978377819 0.7318009994924068 0.025912300043273717 -5.272582370707823e-10 1.2533973858808167e-10 -4.5787373892380856e-10 2.221670038998127 -0.733487019315362 -0.2089200052432716 6.394884621840902e-13 0.0 0.0 -36.644800901412964 -11.810800284147263 -70.48719763755798 14.245399832725525 -7.154240012168884 -26.049200892448425 1.2082599755376577 29.5756995677948 -4.574749879539013 6.650680006714538e-11 3.6271785575081594e-09 -1.1587530934775714e-09 9.656275778979762e-11 6.341167591017438e-09 -1.9977619558630977e-09 6.650680006714538e-11 3.6271785575081594e-09 -1.1587530934775714e-09 -7.7309102565050125 5.474880114197731 -0.41731400415301323 6.650680006714538e-11 3.6271785575081594e-09 -1.1587530934775714e-09 -2.905540131032467 0.9651830233633518 -0.102901995414868 6.650680006714538e-11 3.6271785575081594e-09 -1.1587530934775714e-09 -10.27859978377819 0.7318009994924068 -0.025912300043273717 6.650680006714538e-11 3.6271785575081594e-09 -1.1587530934775714e-09 -2.221670038998127 -0.733487019315362 0.2089200052432716 0.0 0.0 0.0 -9.20658990740776 -64.19889807701111 -11.768000274896622 -175.3189980983734 71.88189804553986 175.26000022888184 -3.0642199516296387 -7.9454802721738815 -9.2227703332901 0.0 0.0 0.0 2.848679982125759 -45.30969858169556 22.784601151943207 3.471269980072975 77.83169746398926 -4.8759800568223 13.488500565290451 -16.45459994673729 34.0776988863945
8.153949978528544 53.944801330566406 41.551099974662066 7.773100063204765 -10.713599771261215 5.698100253939629 -15.315700471401215 17.801099717617035 -4.628379978239536 7.873129695653915 -10.593399927020073 -1.214979998767376 -1.7470100708305836 11.362199485301971 2.699390072375536 4.590569883584976 -30.728899240493774 6.854979917407036 0.0 0.0 0.0 0.0 0.0 0.0 3.197442310920451e-13 0.0 0.0 91.74829602241516 48.54539752006531 -25.811398923397064 -27.104298770427704 -44.00689870119095 91.11730098724365 -8.271850124001503 -60.20309865474701 -14.213799387216568 -1.2530776416497247e-09 7.924541023385245e-09 -3.836930773104541e-10 -2.1365309521570452e-09 1.3091607797832694e-08 -7.187850314949173e-10 -1.2530776416497247e-09 7.924541023385245e-09 -3.836930773104541e-10 7.7309102565050125 5.474880114197731 0.41731400415301323 -1.2530776416497247e-09 7.924541023385245e-09 -3.836930773104541e-10 2.905540131032467 0.9651830233633518 0.102901995414868 -1.2530776416497247e-09 7.924541023385245e-09 -3.836930773104541e-10 10.27859978377819 0.7318009994924068 0.025912300043273717 -1.2530776416497247e-09 7.924541023385245e-09 -3.836930773104541e-10 2.221670038998127 -0.733487019315362 -0.2089200052432716 3.197442310920451e-13 0.0 0.0 -32.395401298999786 -6.190640330314636 -69.28999900817871 16.74370050430298 -9.385290071368217 -31.392700374126434 1.0209899861365557 27.27509915828705 -4.160940013825893 1.3493206552084303e-10 1.7931256479641888e-09 -5.499600774783175e-10 2.2222224060897133e-10 3.1437252800969873e-09 -9.464429240324534e-10 1.3493206552084303e-10 1.7931256479641888e-09 -5.499600774783175e-10 -7.7309102565050125 5.474880114197731 -0.41731400415301323 1.3493206552084303e-10 1.7931256479641888e-09 -5.499600774783175e-10 -2.905540131032467 0.9651830233633518 -0.102901995414868 1.3493206552084303e-10 1.7931256479641888e-09 -5.499600774783175e-10 -10.27859978377819 0.7318009994924068 -0.025912300043273717 1.3493206552084303e-10 1.7931256479641888e-09 -5.499600774783175e-10 -2.221670038998127 -0.733487019315362 0.2089200052432716 0.0 0.0 0.0 -8.502970039844513 -69.6563994884491 -11.02420024573803 -174.35900330543518 75.71870148181915 174.28600430488586 -3.085460029542446 -8.577790260314941 -7.893499732017517 0.0 0.0 0.0 -0.07335700211115181 -41.34380042552948 20.04409968852997 3.0639101564884186 76.97299897670746 -4.693230092525482 14.28940013051033 -18.145000487565994 34.61209952831268
7.844249966321513 53.96879959106445 44.6512999124825 8.16740021109581 -8.213500007987022 4.733299948275089 -15.409100353717804 18.14439967274666 -4.522490054368973 7.756100222468376 -10.735200271010399 -1.158670037984848 -2.100260015577078 11.600199937820435 1.8561199866235256 4.499550126492977 -30.25419920682907 5.121409893035889 0.0 0.0 0.0 0.0 0.0 0.0 0.0 0.0 0.0 85.38309752941132 49.18910086154938 -18.186299800872803 -25.87639957666397 -46.5077018737793 96.63470149040222 -7.9296498745679855 -59.53010022640228 -13.820300549268723 -2.0671464540100715e-09 1.3370424767344957e-08 -2.916067387559451e-10 -3.538609405495663e-09 2.215443828390562e-08 -6.036771083017811e-10 -2.0671464540100715e-09 1.3370424767344957e-08 -2.916067387559451e-10 7.7309102565050125 5.474880114197731 0.41731400415301323 -2.0671464540100715e-09 1.3370424767344957e-08 -2.916067387559451e-10 2.905540131032467 0.9651830233633518 0.102901995414868 -2.0671464540100715e-09 1.3370424767344957e-08 -2.916067387559451e-10 10.27859978377819 0.7318009994924068 0.025912300043273717 -2.0671464540100715e-09 1.3370424767344957e-08 -2.916067387559451e-10 2.221670038998127 -0.733487019315362 -0.2089200052432716 0.0 0.0 0.0 -28.704300820827484 0.169912000419572 -68.48779857158661 19.562299847602844 -12.47109979391098 -37.62780100107193 0.8173379860818386 24.778099358081818 -3.7196100130677223 4.476419235288631e-12 4.96243046654854e-10 -3.069544618483633e-11 4.156675004196586e-12 8.594724931754172e-10 -4.860112312599085e-11 4.476419235288631e-12 4.96243046654854e-10 -3.069544618483633e-11 -7.7309102565050125 5.474880114197731 -0.41731400415301323 4.476419235288631e-12 4.96243046654854e-10 -3.069544618483633e-11 -2.905540131032467 0.9651830233633518 -0.102901995414868 4.476419235288631e-12 4.96243046654854e-10 -3.069544618483633e-11 -10.27859978377819 0.7318009994924068 -0.025912300043273717 4.476419235288631e-12 4.96243046654854e-10 -3.069544618483633e-11 -2.221670038998127 -0.733487019315362 0.2089200052432716 0.0 0.0 0.0 -8.745310306549072 -73.78819763660431 -10.382399931550026 -171.73200488090515 81.03870213031769 171.70400261878967 -2.6990100368857384 -8.571179956197739 -5.793649926781654 0.0 0.0 0.0 -2.073909994214773 -37.17430114746094 17.69689992070198 2.6090200804173946 75.79980075359344 -4.499540068209171 15.031500309705734 -19.905500560998917 34.95779871940613
